<svg xmlns="http://www.w3.org/2000/svg" xmlns:xlink="http://www.w3.org/1999/xlink" version="1.1" id="Food_Icons" x="0px" y="0px" width="100px" height="100px" viewBox="-11.161 -26.177 100.0 135.0" enable-background="new -16.161 -16.177 100 100" xml:space="preserve">
<g>
	<path d="M21.334,8.403l1.677,5.061L33.068-4.832c0,0-14.96-0.316-31.949,17.567l7.882,10.932   C11.001,19.167,15.73,12.454,21.334,8.403z"/>
	<g>
		<path d="M18.28,83.822c4.986-11.746,5.854-24.826,2.595-37.036c-12.211-3.259-25.29-2.391-37.036,2.597L6.292,61.37L18.28,83.822z    "/>
		<path d="M67.171,40.769C82.074,25.863,86.976,4.755,81.906-14.245c-14.185-3.786-29.544-2.009-42.621,5.336    c-0.033,0.353-0.069,0.709-0.106,1.103c-0.052,0.51-0.107,1.053-0.164,1.625c-0.074,0.574-0.017,1.178-0.032,1.81    c0,0.636,0.002,1.297,0.002,1.982c0.07,0.682,0.143,1.386,0.217,2.11c0.035,0.366,0.072,0.735,0.109,1.109    c0.053,0.373,0.146,0.74,0.218,1.118c0.151,0.76,0.307,1.534,0.466,2.321c0.498,1.521,0.879,3.165,1.604,4.71    c0.586,1.61,1.475,3.105,2.284,4.659c0.975,1.443,1.882,2.962,3.032,4.263c1.039,1.405,2.322,2.544,3.475,3.755    c0.641,0.537,1.271,1.062,1.886,1.577c0.313,0.253,0.61,0.526,0.927,0.759c0.326,0.222,0.647,0.44,0.965,0.656    c0.639,0.435,1.26,0.857,1.862,1.267c0.638,0.348,1.254,0.685,1.848,1.008c0.6,0.309,1.153,0.671,1.725,0.896    c0.569,0.237,1.109,0.464,1.615,0.678c0.513,0.215,0.99,0.416,1.431,0.602c0.463,0.141,0.887,0.272,1.27,0.39    c1.533,0.467,2.41,0.733,2.41,0.733s-0.902-0.162-2.479-0.447c-0.395-0.069-0.83-0.15-1.306-0.235    c-0.469-0.135-0.975-0.278-1.514-0.435c-0.544-0.156-1.125-0.321-1.735-0.498c-0.617-0.163-1.213-0.46-1.867-0.704    c-0.648-0.26-1.324-0.53-2.024-0.812c-0.669-0.347-1.359-0.706-2.072-1.076c-0.357-0.188-0.72-0.377-1.086-0.566    c-0.359-0.205-0.7-0.447-1.059-0.674c-0.711-0.465-1.436-0.94-2.178-1.424c-1.357-1.118-2.869-2.186-4.155-3.544    c-1.4-1.257-2.573-2.761-3.819-4.221c-1.084-1.572-2.252-3.118-3.115-4.812c-1.004-1.628-1.658-3.392-2.416-5.058    c-0.285-0.867-0.567-1.722-0.844-2.559c-0.131-0.42-0.285-0.832-0.394-1.249c-0.095-0.422-0.188-0.837-0.28-1.248    c-0.184-0.826-0.361-1.628-0.533-2.404c-0.097-0.792-0.191-1.555-0.281-2.289c-0.029-0.278-0.064-0.549-0.101-0.821    c-2.151,1.614-4.216,3.393-6.174,5.35C11.988,15.398,7.087,36.506,12.157,55.504C31.156,60.574,52.263,55.673,67.171,40.769z     M58.525,3.75c0-2.977,2.414-5.39,5.388-5.392c2.978,0,5.388,2.415,5.388,5.392c0.001,2.975-2.411,5.386-5.388,5.387    C60.938,9.137,58.524,6.725,58.525,3.75z"/>
	</g>
	<path d="M65.712,35.994c0,0-0.598,15.975-12.979,28.354L42.096,48.482L65.712,35.994z"/>
</g>
<text x="-16.161" y="101.323" font-size="5.0" font-weight="bold" font-family="Helvetica Neue, Helvetica, Arial-Unicode, Arial, Sans-serif" fill="#000000">Created by Kyle Tezak</text><text x="-16.161" y="106.323" font-size="5.0" font-weight="bold" font-family="Helvetica Neue, Helvetica, Arial-Unicode, Arial, Sans-serif" fill="#000000">from the Noun Project</text></svg>